<?xml version="1.0" standalone="no"?>
<!DOCTYPE svg PUBLIC "-//W3C//DTD SVG 20010904//EN"
 "http://www.w3.org/TR/2001/REC-SVG-20010904/DTD/svg10.dtd">
<svg version="1.0" xmlns="http://www.w3.org/2000/svg"
 width="253.000000pt" height="98.000000pt" viewBox="0 0 253.000000 98.000000"
 preserveAspectRatio="xMidYMid meet">

<g transform="translate(0.000000,98.000000) scale(0.100000,-0.100000)"
fill="#000000" stroke="none">
<path d="M1087 883 c-3 -5 44 -10 106 -11 127 -3 264 -19 287 -33 11 -7 5 -9
-20 -5 -19 3 -99 11 -177 17 -115 10 -144 10 -157 0 -12 -10 -16 -36 -18 -110
-1 -81 -2 -88 -8 -46 -4 28 -8 42 -8 32 -1 -10 -6 -15 -12 -12 -6 4 -10 -12
-10 -39 0 -25 0 -49 0 -53 0 -5 11 -9 25 -11 19 -3 24 0 19 12 -5 13 3 16 46
16 41 0 50 3 42 13 -6 7 -14 36 -18 65 -3 28 -13 57 -20 63 -8 6 -14 18 -14
25 0 11 19 14 88 13 48 0 110 -4 137 -7 l50 -7 14 -80 c12 -67 26 -103 38 -91
2 1 -4 37 -12 80 -8 43 -15 79 -15 81 0 1 15 2 33 1 17 -1 32 -7 32 -13 0 -6
13 -30 28 -53 30 -46 38 -75 22 -75 -5 0 -10 8 -9 18 1 24 -3 22 -21 -13 l-16
-30 34 0 c18 0 38 5 45 12 14 14 16 50 4 63 -16 18 -54 85 -48 85 3 0 17 -20
32 -45 14 -25 30 -42 35 -39 12 7 -25 71 -58 102 -26 24 -49 30 -37 10 4 -8 3
-10 -2 -5 -5 5 -9 14 -9 20 0 7 -29 19 -65 28 -75 19 -354 36 -363 22z"/>
<path d="M948 873 c12 -2 32 -2 45 0 12 2 2 4 -23 4 -25 0 -35 -2 -22 -4z"/>
<path d="M905 853 c-82 -7 -199 -48 -217 -77 -4 -6 -8 -7 -8 -3 0 12 -45 -44
-53 -65 -10 -29 3 -47 40 -57 45 -13 63 -5 63 28 0 59 100 115 238 134 65 9
82 15 80 27 -3 16 -59 21 -143 13z"/>
<path d="M635 783 c-93 -62 -305 -255 -305 -277 0 -5 48 38 108 96 59 57 136
126 172 152 70 52 76 56 69 56 -2 0 -22 -12 -44 -27z"/>
<path d="M490 739 c-51 -37 -71 -59 -55 -59 4 0 21 13 38 29 18 16 43 39 57
50 42 35 18 22 -40 -20z"/>
<path d="M592 718 c-19 -19 -14 -56 8 -68 22 -12 27 -1 8 18 -9 9 -9 18 0 37
12 26 4 33 -16 13z"/>
<path d="M1041 704 c0 -11 3 -14 6 -6 3 7 2 16 -1 19 -3 4 -6 -2 -5 -13z"/>
<path d="M1635 646 c-7 -25 -1 -46 17 -52 27 -8 22 -33 -9 -40 -16 -3 -39 -10
-52 -15 -17 -7 -26 -7 -32 2 -5 9 -52 13 -161 14 -85 1 -159 4 -164 8 -6 3
-20 0 -30 -8 -22 -16 -58 -20 -49 -5 4 6 -25 10 -80 10 -47 0 -84 -4 -81 -8 8
-13 -129 -30 -230 -28 l-92 1 25 -29 c22 -27 23 -31 9 -41 -9 -7 -13 -15 -9
-18 11 -11 -2 -8 -48 12 -65 29 -169 23 -242 -12 -53 -27 -78 -50 -160 -150
-41 -51 -63 -62 -45 -22 14 30 2 47 -16 22 -7 -9 -23 -17 -34 -17 -24 0 -37
-16 -22 -25 8 -5 8 -11 0 -20 -20 -24 12 -32 101 -27 l87 4 5 39 c8 59 39 111
86 144 34 24 52 29 99 30 64 0 118 -19 133 -46 9 -17 7 -17 -33 1 -51 23 -116
25 -162 6 -19 -8 -53 -37 -75 -66 -36 -45 -41 -58 -41 -103 0 -138 148 -228
275 -167 51 25 94 72 111 122 12 36 42 49 56 24 13 -24 58 -21 58 4 0 19 6 20
439 13 l438 -6 7 29 c12 46 48 124 57 124 5 0 18 20 30 44 24 52 76 90 168
122 l64 22 -94 4 c-52 2 -95 0 -97 -4 -2 -5 -14 -8 -28 -8 -17 0 -25 7 -30 25
-3 14 -13 25 -20 25 -11 0 -12 -4 -5 -19 8 -14 7 -20 -4 -25 -9 -3 -25 10 -45
39 -17 25 -26 45 -20 45 15 0 -23 36 -38 36 -8 1 -15 -4 -17 -10z m-1044 -319
c113 -76 104 -217 -15 -262 -53 -20 -101 -15 -141 17 -20 16 -24 23 -13 29 7
5 8 9 2 9 -30 0 -45 112 -21 160 33 65 126 89 188 47z"/>
<path d="M468 315 c-52 -29 -72 -97 -42 -145 8 -14 13 -17 10 -8 -3 10 1 24 9
32 8 8 15 23 15 33 0 15 2 16 10 3 5 -8 10 -10 10 -4 0 6 -10 18 -22 27 -19
13 -21 17 -10 29 11 11 16 9 32 -9 21 -26 32 -30 24 -8 -4 9 0 15 9 15 8 0 17
7 21 15 3 8 12 15 21 15 18 0 18 -49 0 -62 -5 -4 7 -8 28 -8 29 0 37 4 37 18
0 51 -98 87 -152 57z"/>
<path d="M530 191 c0 -6 5 -13 10 -16 6 -3 10 1 10 9 0 9 -4 16 -10 16 -5 0
-10 -4 -10 -9z"/>
<path d="M570 185 c-12 -15 -5 -55 10 -55 5 0 17 12 26 26 15 22 15 27 3 35
-19 12 -25 11 -39 -6z"/>
<path d="M459 153 c-11 -15 -11 -16 0 -6 10 9 18 9 32 0 15 -10 40 -4 28 7
-17 15 -48 14 -60 -1z"/>
<path d="M1738 613 c-5 -19 1 -21 91 -27 161 -11 274 -28 259 -38 -9 -7 -5 -8
14 -5 16 2 73 -8 128 -23 55 -15 100 -26 100 -24 0 13 -84 55 -125 64 -70 14
-316 40 -382 40 -40 0 -59 5 -68 16 -11 15 -12 15 -17 -3z"/>
<path d="M1503 603 c15 -2 39 -2 55 0 15 2 2 4 -28 4 -30 0 -43 -2 -27 -4z"/>
<path d="M1135 580 c-4 -6 7 -10 27 -9 27 0 30 2 13 9 -27 12 -33 12 -40 0z"/>
<path d="M292 558 c-7 -7 -12 -19 -12 -27 0 -11 4 -10 20 4 21 19 26 35 12 35
-4 0 -13 -5 -20 -12z"/>
<path d="M217 503 c-4 -3 -7 -11 -7 -17 0 -6 5 -5 12 2 6 6 9 14 7 17 -3 3 -9
2 -12 -2z"/>
<path d="M2247 452 c-24 -12 -37 -12 -73 -2 -62 18 -138 7 -193 -28 -59 -36
-150 -163 -151 -209 0 -36 -15 -42 -51 -20 -17 10 -23 10 -26 0 -3 -7 -11 -13
-19 -13 -8 0 -14 -3 -14 -8 0 -4 33 -6 74 -4 85 5 120 -9 169 -65 18 -20 46
-42 64 -49 77 -33 183 -5 224 59 31 46 67 70 108 72 33 1 36 3 36 30 0 29 2
30 48 33 60 4 62 18 2 16 -56 -2 -62 21 -7 31 l37 7 -34 16 c-28 14 -36 26
-46 65 -7 27 -19 54 -26 62 -21 19 -90 24 -122 7z m-151 -63 c-22 -5 -53 -18
-71 -29 -33 -20 -83 -101 -96 -154 l-7 -31 -1 36 c-3 104 75 190 169 188 l45
-1 -39 -9z m74 -48 c131 -69 90 -261 -55 -261 -20 0 -49 7 -66 15 -91 48 -91
197 2 247 43 23 75 23 119 -1z"/>
<path d="M2060 322 c-49 -24 -76 -80 -60 -127 6 -19 25 -44 42 -56 28 -20 31
-21 46 -5 16 16 16 18 -3 32 -11 8 -30 13 -42 11 -25 -5 -40 18 -17 27 8 3 19
16 24 28 5 13 9 17 9 11 1 -18 21 -16 21 2 0 8 -6 15 -13 15 -22 0 -38 22 -26
36 8 10 14 9 30 -7 10 -10 19 -24 19 -30 0 -5 5 -7 10 -4 6 4 8 11 5 16 -4 5
-1 9 6 9 6 0 17 7 24 17 16 21 38 8 26 -15 -11 -21 9 -52 33 -52 18 0 22 31 6
59 -8 16 -76 51 -98 51 -4 0 -23 -8 -42 -18z"/>
<path d="M2120 260 c0 -5 5 -10 10 -10 6 0 10 5 10 10 0 6 -4 10 -10 10 -5 0
-10 -4 -10 -10z"/>
<path d="M2123 203 c-15 -6 -17 -33 -3 -33 6 0 10 -9 10 -19 0 -32 20 -35 48
-7 21 20 24 28 14 38 -10 10 -17 10 -33 0 -12 -8 -24 -10 -27 -6 -4 4 -1 9 6
11 6 3 12 9 12 14 0 10 -8 10 -27 2z"/>
<path d="M193 435 c-9 -24 1 -27 15 -5 8 13 8 20 2 20 -6 0 -13 -7 -17 -15z"/>
<path d="M186 366 c-10 -16 -22 -23 -35 -19 -10 2 -22 0 -25 -6 -5 -7 2 -11
16 -11 27 1 103 59 77 60 -9 0 -24 -11 -33 -24z"/>
<path d="M85 300 c-3 -5 1 -10 9 -10 9 0 16 5 16 10 0 6 -4 10 -9 10 -6 0 -13
-4 -16 -10z"/>
<path d="M88 273 c6 -2 18 -2 25 0 6 3 1 5 -13 5 -14 0 -19 -2 -12 -5z"/>
</g>
</svg>
