<?xml version="1.0" encoding="UTF-8"?><svg id="a" xmlns="http://www.w3.org/2000/svg" viewBox="0 0 50 50"><defs><style>.e{fill:#002649;}</style></defs><g id="b"><path id="c" class="e" d="M23.44,0h3.12c.12,.03,.25,.06,.37,.08,3.85,.25,7.57,1.44,10.86,3.45,6.28,3.69,10.61,9.97,11.82,17.16,.17,.91,.26,1.83,.38,2.75v3.12c-.04,.32-.08,.64-.12,.96-1.15,11.12-9.52,20.13-20.53,22.09-.92,.17-1.86,.26-2.79,.39h-3.12c-.61-.07-1.22-.14-1.83-.23-4.54-.6-8.82-2.46-12.36-5.37C4.56,40.63,1.41,35.28,.39,29.35c-.17-.92-.26-1.86-.39-2.79v-3.12c.04-.32,.08-.64,.12-.96,.51-5.19,2.64-10.08,6.11-13.97C9.97,4.18,15.1,1.31,20.74,.37c.89-.16,1.8-.25,2.7-.37m1.65,36.04c3.53-.17,7.06-.3,10.58-.51,2.85-.17,4.16-1.41,4.55-4.19,.38-2.74,.5-5.51,.36-8.28-.08-1.79-.27-3.56-.56-5.33-.25-1.63-1.55-2.88-3.18-3.08-.77-.15-1.54-.25-2.32-.28-3.58-.12-7.16-.31-10.73-.28-3.4,.03-6.79,.25-10.18,.48-1.87,.04-3.42,1.45-3.62,3.31-.3,1.99-.49,4-.55,6.01-.15,2.8,.04,5.6,.56,8.36,.27,1.58,1.51,2.81,3.09,3.08,.49,.11,.99,.18,1.49,.21,3.51,.18,7.02,.34,10.53,.5"/><path id="d" class="e" d="M30.02,24.99l-8.12,4.67v-9.35l8.12,4.67"/></g></svg>