<?xml version="1.0" encoding="UTF-8"?><svg id="a" xmlns="http://www.w3.org/2000/svg" viewBox="0 0 50 50"><defs><style>.c{fill:#002649;}</style></defs><path id="b" class="c" d="M23.44,0h3.12c.84,.11,1.68,.18,2.51,.33,5.83,.93,11.12,3.93,14.91,8.45,8.98,10.46,7.78,26.22-2.68,35.2-9.47,8.12-23.48,8.02-32.81-.26C4.21,40.01,1.35,34.93,.39,29.35,.22,28.43,.13,27.49,0,26.56v-3.12c.08-.61,.14-1.22,.23-1.83C1.73,10.85,9.99,2.28,20.69,.38,21.6,.22,22.52,.13,23.43,0m8.19,16.35v-4.92s-.1-.04-.15-.05c-1.8,.01-3.62-.07-5.41,.07-1.8,.09-3.41,1.15-4.2,2.77-.55,1.13-.81,2.38-.75,3.64v2.88h-2.82v5.14h2.84v14.45h6.03v-14.48h4.06c.17-1.71,.34-3.38,.52-5.11h-4.59v-2.72c0-1.31,.37-1.67,1.69-1.67h2.79"/></svg>