<?xml version="1.0" encoding="UTF-8"?><svg id="a" xmlns="http://www.w3.org/2000/svg" viewBox="0 0 50 50"><defs><style>.g{fill:#002649;}</style></defs><path id="b" class="g" d="M24.82,22.14v3.2c0,.67-.28,1.01-.78,1.01s-.78-.34-.78-1.01v-5.5c0-.42,.07-.8,.51-.96,.41-.14,.85,.04,1.05,.42,.96,1.27,1.94,2.53,3.04,3.77v-3.06c0-.83,.24-1.18,.8-1.17s.77,.36,.77,1.2v4.1c0,.39,0,.78,0,1.17,.01,.44-.07,.83-.53,1s-.76-.1-1.03-.45c-.96-1.25-1.93-2.5-2.9-3.74l-.13,.03"/><path id="c" class="g" d="M25,0c13.81,0,25,11.19,25,25,0,13.81-11.19,25-25,25C11.2,50,0,38.81,0,25c0,0,0,0,0-.01C.01,11.19,11.2,0,25,0m.13,10.45c-4.13-.09-8.15,1.29-11.35,3.9-2.5,1.94-4.02,4.9-4.12,8.07-.07,3.07,1.22,6.01,3.53,8.05,2.62,2.43,5.96,3.94,9.52,4.29,.82,.11,1.09,.42,.99,1.23-.09,.77-.22,1.54-.25,2.31-.02,.37,.09,.73,.3,1.04,.28,.34,.7,.2,1.07,0,1.59-.88,3.23-1.69,4.77-2.64,3.75-2.15,6.93-5.16,9.28-8.79,.91-1.45,1.42-3.11,1.48-4.82,.1-3.05-1.14-5.99-3.39-8.05-3.2-3.01-7.44-4.65-11.83-4.59"/><path id="d" class="g" d="M32.01,23.22v1.4h2.1c.66,0,1.01,.29,1.01,.78s-.37,.77-1.02,.77c-.91,0-1.82,0-2.73,0-.68,0-.96-.26-.96-.95-.01-1.86-.01-3.72,0-5.59,0-.7,.26-.94,.96-.95,.93-.01,1.86,0,2.79,0,.61,0,.96,.29,.96,.77s-.36,.78-1.01,.79h-2.08v1.4h2.06c.64,0,1.02,.3,1.02,.78s-.36,.79-1,.8c-.68,0-1.35,0-2.1,0"/><path id="e" class="g" d="M16.57,24.78c.81,0,1.5,0,2.2,0,.61,.01,.95,.31,.95,.79s-.36,.77-.96,.78c-.94,0-1.87,0-2.81,0-.68,0-.97-.28-.97-.95,0-1.89,0-3.78,0-5.67,0-.58,.29-.9,.76-.91,.5-.01,.81,.31,.81,.92,.01,1.44,0,2.88,0,4.32v.71"/><path id="f" class="g" d="M20.48,22.54c0-.97,0-1.95,0-2.93,0-.53,.22-.8,.76-.8,.59,0,.81,.18,.82,.8,0,1.99,0,3.98,0,5.97,0,.53-.25,.79-.79,.77s-.78-.21-.79-.78c0-1.01,0-2.03,0-3.04"/></svg>