<?xml version="1.0" encoding="UTF-8"?><svg id="a" xmlns="http://www.w3.org/2000/svg" viewBox="0 0 50 50"><defs><style>.e{fill:#fff;}</style></defs><path id="b" class="e" d="M0,24.97C.02,11.16,11.22-.02,25.03,0c13.81,.02,24.99,11.22,24.97,25.03-.02,13.81-11.22,24.99-25.03,24.97h-.01C11.16,49.97,0,38.77,0,24.98m9.6,0h-.04c0,1.9-.01,3.8,0,5.7,0,.72,.05,1.43,.15,2.14,.27,2.87,2.07,5.37,4.7,6.56,1.41,.62,2.93,.93,4.47,.92,3.9,.02,7.8,.02,11.7,0,.85,0,1.7-.06,2.53-.19,3.03-.32,5.61-2.34,6.65-5.2,.46-1.25,.69-2.58,.68-3.92,0-3.86,0-7.73,0-11.6,0-.73-.04-1.46-.15-2.19-.28-3.05-2.29-5.67-5.15-6.75-1.25-.48-2.57-.72-3.91-.72-4.15-.02-8.3-.02-12.44,0-1.69-.02-3.36,.37-4.86,1.15-2.64,1.41-4.29,4.16-4.29,7.15-.14,2.31-.03,4.63-.03,6.94"/><path id="c" class="e" d="M25,12.56c2.04,0,4.08-.02,6.12,.01,.66,0,1.32,.09,1.97,.23,2.39,.49,4.16,2.49,4.35,4.92,.07,.56,.1,1.13,.1,1.7,0,3.81,.03,7.63-.02,11.44,0,.95-.16,1.89-.45,2.8-.63,2.15-2.58,3.63-4.82,3.65-2.9,.16-5.8,.15-8.71,.16-1.92,0-3.85,0-5.77-.14-2.81-.12-5.08-2.35-5.24-5.16-.06-.51-.09-1.03-.09-1.55,0-3.86-.03-7.73,.02-11.59,.01-.92,.16-1.83,.45-2.7,.64-2.14,2.59-3.61,4.82-3.65,2.02-.15,4.05-.12,6.07-.16,.4,0,.8,0,1.2,0v.05m-.01,4.28c-4.5-.03-8.18,3.6-8.2,8.11-.03,4.5,3.6,8.18,8.11,8.2s8.18-3.6,8.2-8.11h0c.05-4.48-3.53-8.15-8.01-8.2-.03,0-.07,0-.1,0m8.15,1.66c.9,0,1.63-.72,1.63-1.62s-.72-1.63-1.62-1.63c-.9,0-1.63,.72-1.63,1.62v.02c0,.89,.73,1.61,1.62,1.61"/><path id="d" class="e" d="M30.26,25.02c-.01,2.91-2.38,5.25-5.28,5.24-2.91-.01-5.25-2.38-5.24-5.28,.01-2.91,2.38-5.25,5.28-5.24h0c2.9,0,5.24,2.36,5.24,5.26v.02"/></svg>