<?xml version="1.0" encoding="UTF-8"?><svg id="a" xmlns="http://www.w3.org/2000/svg" xmlns:xlink="http://www.w3.org/1999/xlink" viewBox="0 0 50 50"><defs><style>.h{fill:none;}.i{fill:#002649;}.j{clip-path:url(#c);}</style><clipPath id="c"><rect class="h" width="50" height="50"/></clipPath></defs><g id="b" transform="translate(0 0.271)"><g class="j"><g id="d" transform="translate(0 -0.271)"><path id="e" class="i" d="M0,23.9c.16-1.14,.27-2.3,.48-3.43,.49-2.61,1.43-5.11,2.76-7.4,.08-.13,.2-.23,.35-.27,.45-.13,.91-.21,1.37-.25l-1.59,1.28c.66,.58,1.5,.92,2.38,.96,1.73-.06,3.44-.28,5.13-.67,.4-.14,.85,.06,1.01,.45,.64,1.11,1.34,2.19,2,3.3,.12,.21,.19,.46,.2,.71,.02,1.03,0,2.06,.02,3.1,0,.26,.09,.51,.24,.73,.98,1.37,1.99,2.71,2.98,4.07,.16,.31,.54,.45,.86,.3v-1.4l.1-.02c.35,.74,.72,1.47,1.05,2.21,.1,.27,.33,.46,.61,.5,1.05,.22,2.11,.44,3.15,.71,.31,.08,.6,.24,.84,.47,.88,.87,1.66,1.86,3.14,1.87-.28,.7-.61,1.37-.98,2.02-.66,.85-.64,2.05,.07,2.88,1.19,1.67,1.55,3.69,2.1,5.62,.03,.17,.02,.34-.02,.51-.25,1.05-.45,2.11-.78,3.14-.23,1.09-.25,2.21-.07,3.3,.01,.23,.03,.47,.06,.72l-1.81,.23h-2.67c-.12-.04-.24-.06-.37-.08-3.35-.2-6.62-1.14-9.57-2.75C6.32,43.22,1.63,36.79,.38,29.33c-.18-.94-.26-1.91-.38-2.86v-2.57"/><path id="f" class="i" d="M30.34,48.77c.13-.5,.23-.95,.38-1.38,.07-.15,.19-.28,.34-.37,1.17-.8,2.35-1.58,3.52-2.38,.2-.14,.35-.34,.44-.57,.31-.76,.56-1.54,.86-2.3,.08-.19,.23-.35,.42-.46,.7-.36,1.43-.66,2.12-1.02,.26-.13,.47-.33,.62-.58,.85-1.58,1.67-3.18,2.51-4.82-.64-.38-1.24-.79-1.88-1.11-1.61-.78-3-1.94-4.06-3.38-.24-.35-.64-.56-1.06-.58-.6-.09-1.2-.21-1.79-.37-1.14-.24-2.26-.53-3.41-.69-.48-.01-.97,.08-1.41,.29-.42,.25-.97,.12-1.23-.3-.01-.02-.02-.04-.03-.06-.41-.64-1.1-1.05-1.86-1.1,.03-.61,.06-1.19,.09-1.76-.89-.3-1.86,.14-2.22,1.01-.18-.78-.33-1.4-.48-2.06,.59-.28,1.15-.56,1.72-.81,.13-.04,.27-.03,.39,.03,.45,.19,.87,.45,1.33,.6,.39,.1,.79,.16,1.19,.17,.11-.02,.2-.11,.24-.21,.1-1.31,1.06-2.1,1.75-3.06,.88-1.18,2.04-2.13,3.38-2.76,1.33-.67,2.59-1.24,4.09-.76,.08,.01,.16,.01,.23,0,.39-.76,.35-1.03-.21-1.61-.32-.33-.62-.68-.96-.98-1.02-.88-1.81-1.99-2.3-3.24-.07-.29-.35-.46-.64-.4-.7,.04-1.4-.11-2.01-.46-.72-.24-1.47-.4-2.23-.46-.16,.88-.31,1.69-.46,2.56-.8-.09-1.59-.25-2.36-.49-.51-.2-.24-.89-.36-1.36-.08-.32,.21-.28,.39-.33,.25-.08,.52-.14,.78-.17,.5,.02,.92-.37,.94-.87,0-.02,0-.04,0-.05,.09-.69,.3-1.36,.47-2.1,.62,.26,1.23,.48,1.81,.77,.1,.05,.15,.34,.12,.49-.15,.4,.05,.85,.46,1,.07,.03,.14,.04,.21,.05,.2,.05,.39,.13,.56,.24,.77,.5,1.79,.36,2.39-.32-.38-.44-.77-.93-1.2-1.38-.47-.53-.98-1.02-1.52-1.49-.48-.37-.66-1.01-.44-1.58,.94,.31,1.93,.22,2.82,.93,1.11,.91,1.88,2.18,2.18,3.59,.1,.43,.34,.82,.68,1.1,.71,.6,1.37,1.26,2.08,1.86,.39,.3,.8,.57,1.22,.83,.35-.56,.67-1.01,.93-1.49,.13-.25,.39-.41,.67-.41,1.06-.08,2.13-.19,3.19-.28,.09,0,.19,0,.28-.04,.54-.33,.77-.02,1.04,.42,2.68,4.26,3.95,9.26,3.62,14.29-.34,7.4-4.1,14.22-10.18,18.46-2.39,1.73-5.08,2.98-7.94,3.7-.08,.01-.17,.02-.25,.03"/><path id="g" class="i" d="M5.68,9.56C12.71,1.03,24.62-1.65,34.62,3.06c-.72,.19-1.48,.16-2.18-.08-.58-.13-1.19,0-1.67,.35-.69,.48-1.32,1.04-1.88,1.66-.17,.18-.39,.29-.63,.33-1.18,.14-2.36,.28-3.55,.34-.62,0-1.23-.05-1.84-.19-.26-.08-.54,.05-.64,.31-.24,.43-.51,.84-.8,1.24-.14,.18-.33,.3-.55,.34-1.01,.11-2.03,.16-3.04,.14-.66-.08-1.31-.24-1.93-.47-.33-.13-.7-.09-.98,.12-1.03,.69-2.24,1.08-3.48,1.11-1.8,.2-3.57,.59-5.29,1.17-.14,.05-.29,.07-.48,.12M29.47,2.75c-1.33-1.04-1.39-1.05-2.75-.3-.39,.21-.78,.42-1.16,.65-.51,.3-1.01,.62-1.53,.93,.79,.66,.9,.7,1.8,.59,.49,.01,.97-.06,1.43-.23,.77-.5,1.51-1.05,2.21-1.64m-12.99,1.93c.51,.3,.98,.58,1.46,.84,.08,.04,.18,.05,.27,.03,1.04-.27,2.08-.55,3.16-.83-.19-.34-.39-.63-.53-.94-.16-.34-.35-.45-.7-.28-.61,.34-1.35,.31-1.93-.07-.03-.01-.06-.02-.09-.02-.55,.43-1.07,.83-1.64,1.26"/></g></g></g></svg>