<?xml version="1.0" encoding="UTF-8"?><svg id="a" xmlns="http://www.w3.org/2000/svg" viewBox="0 0 50 50"><defs><style>.h{fill:#fff;}</style></defs><g id="b"><path id="c" class="h" d="M24.99,0c13.81,0,25,11.19,25.01,24.99,0,13.81-11.19,25-24.99,25.01C11.2,50,0,38.81,0,25.01c0,0,0-.01,0-.02C.01,11.19,11.2,0,24.99,0m.13,10.45c-4.13-.09-8.15,1.29-11.35,3.9-2.5,1.94-4.02,4.9-4.12,8.07-.07,3.07,1.22,6.01,3.53,8.04,2.62,2.43,5.96,3.94,9.52,4.29,.83,.11,1.09,.42,.99,1.23-.09,.77-.22,1.54-.25,2.31-.02,.37,.09,.73,.3,1.04,.28,.34,.7,.2,1.07,0,1.59-.88,3.22-1.69,4.77-2.64,3.75-2.15,6.93-5.16,9.28-8.79,.91-1.45,1.43-3.11,1.48-4.83,.1-3.05-1.14-5.99-3.39-8.05-3.2-3.01-7.44-4.65-11.83-4.58"/><path id="d" class="h" d="M24.66,21.98v3.18c0,.66-.27,1.01-.78,1.01s-.77-.34-.77-1.01c0-1.82,0-3.64,0-5.46,0-.42,.07-.79,.5-.95,.4-.14,.84,.04,1.04,.42,.96,1.26,1.93,2.51,3.01,3.74v-3.04c0-.82,.24-1.17,.79-1.16s.76,.35,.76,1.19v4.07c0,.39,0,.78,0,1.16,.01,.44-.07,.83-.53,.99s-.75-.1-1.02-.45c-.95-1.25-1.92-2.48-2.88-3.72l-.13,.04"/><path id="e" class="h" d="M32,23.21v1.4c.71,0,1.41,0,2.1,0,.66,0,1.01,.29,1.01,.78s-.37,.77-1.02,.78c-.91,0-1.82,0-2.73,0-.68,0-.96-.26-.96-.95-.01-1.86-.01-3.72,0-5.58,0-.7,.26-.94,.96-.95,.93-.01,1.86-.01,2.79,0,.61,0,.96,.29,.96,.77,0,.49-.36,.78-1.01,.79-.68,0-1.35,0-2.08,0v1.4h2.06c.64,0,1.02,.3,1.02,.78s-.36,.79-1,.8c-.68,0-1.35,0-2.1,0"/><path id="f" class="h" d="M16.46,24.61c.8,0,1.49,0,2.19,0,.6,.01,.95,.31,.94,.78s-.36,.77-.96,.77c-.93,0-1.86,0-2.79,0-.68,0-.96-.28-.96-.94,0-1.88,0-3.75,0-5.63,0-.57,.29-.89,.76-.91,.49-.01,.8,.31,.81,.92,.01,1.43,0,2.86,0,4.29v.71"/><path id="g" class="h" d="M20.35,22.38c0-.97,0-1.94,0-2.9,0-.53,.22-.8,.76-.8,.59,0,.81,.18,.81,.8,0,1.98,0,3.95,0,5.93,0,.53-.24,.78-.79,.77-.55-.01-.77-.21-.78-.77,0-1.01,0-2.01,0-3.02"/></g></svg>