<?xml version="1.0" encoding="UTF-8"?><svg id="a" xmlns="http://www.w3.org/2000/svg" viewBox="0 0 50 50"><defs><style>.c{fill:#fff;}</style></defs><path id="b" class="c" d="M23.44,0h3.13c.84,.11,1.68,.18,2.51,.33,5.83,.93,11.13,3.93,14.92,8.45,8.97,10.47,7.76,26.23-2.71,35.21-9.46,8.11-23.45,8-32.79-.25C4.22,40.02,1.36,34.94,.39,29.36c-.17-.92-.26-1.86-.39-2.79v-3.12c.07-.61,.14-1.22,.23-1.83C1.73,10.85,10,2.28,20.69,.39c.91-.16,1.83-.26,2.74-.38m8.2,16.35v-4.92s-.1-.04-.15-.05c-1.8,.01-3.62-.07-5.41,.07-1.8,.09-3.41,1.15-4.2,2.77-.55,1.13-.81,2.38-.75,3.64,0,.94,0,1.88,0,2.88h-2.82v5.14h2.84v14.45h6.03v-14.49h4.06c.18-1.71,.35-3.38,.52-5.11h-4.59v-2.72c0-1.31,.37-1.67,1.69-1.68h2.79"/></svg>